<mxfile host="app.diagrams.net" agent="Mozilla/5.0 (Windows NT 10.0; Win64; x64) AppleWebKit/537.36 (KHTML, like Gecko) Chrome/136.0.0.0 Safari/537.36" version="27.0.5">
  <diagram name="Page-1" id="G_QKHqDB1Ywck0QpiVM4">
    <mxGraphModel dx="2434" dy="1054" grid="1" gridSize="10" guides="1" tooltips="1" connect="1" arrows="1" fold="1" page="1" pageScale="1" pageWidth="850" pageHeight="1100" math="0" shadow="0">
      <root>
        <mxCell id="0" />
        <mxCell id="1" parent="0" />
        <mxCell id="k_D7o5TNv6KQE1bCxvpx-1" value="Ketua Panitia" style="rounded=0;whiteSpace=wrap;html=1;" vertex="1" parent="1">
          <mxGeometry x="280" y="40" width="120" height="60" as="geometry" />
        </mxCell>
        <mxCell id="k_D7o5TNv6KQE1bCxvpx-2" value="Ketua Pelaksana&lt;div&gt;Code Summit&lt;/div&gt;" style="rounded=0;whiteSpace=wrap;html=1;" vertex="1" parent="1">
          <mxGeometry x="280" y="240" width="120" height="60" as="geometry" />
        </mxCell>
        <mxCell id="k_D7o5TNv6KQE1bCxvpx-3" value="Sekretaris" style="rounded=0;whiteSpace=wrap;html=1;" vertex="1" parent="1">
          <mxGeometry x="80" y="140" width="120" height="60" as="geometry" />
        </mxCell>
        <mxCell id="k_D7o5TNv6KQE1bCxvpx-4" value="Bendahara" style="rounded=0;whiteSpace=wrap;html=1;" vertex="1" parent="1">
          <mxGeometry x="480" y="140" width="120" height="60" as="geometry" />
        </mxCell>
        <mxCell id="k_D7o5TNv6KQE1bCxvpx-5" value="Ketua Pelaksana&lt;div&gt;Code Mind&lt;/div&gt;" style="rounded=0;whiteSpace=wrap;html=1;" vertex="1" parent="1">
          <mxGeometry x="80" y="240" width="120" height="60" as="geometry" />
        </mxCell>
        <mxCell id="k_D7o5TNv6KQE1bCxvpx-6" value="Ketua Pelaksana&lt;div&gt;Code Clash&lt;/div&gt;" style="rounded=0;whiteSpace=wrap;html=1;" vertex="1" parent="1">
          <mxGeometry x="480" y="240" width="120" height="60" as="geometry" />
        </mxCell>
        <mxCell id="k_D7o5TNv6KQE1bCxvpx-7" value="Koordinator Lapangan" style="rounded=0;whiteSpace=wrap;html=1;" vertex="1" parent="1">
          <mxGeometry x="280" y="370" width="120" height="60" as="geometry" />
        </mxCell>
        <mxCell id="k_D7o5TNv6KQE1bCxvpx-8" value="Divisi Keamanan&lt;span style=&quot;color: rgba(0, 0, 0, 0); font-family: monospace; font-size: 0px; text-align: start; text-wrap-mode: nowrap;&quot;&gt;%3CmxGraphModel%3E%3Croot%3E%3CmxCell%20id%3D%220%22%2F%3E%3CmxCell%20id%3D%221%22%20parent%3D%220%22%2F%3E%3CmxCell%20id%3D%222%22%20value%3D%22Koordinator%20Lapangan%22%20style%3D%22rounded%3D0%3BwhiteSpace%3Dwrap%3Bhtml%3D1%3B%22%20vertex%3D%221%22%20parent%3D%221%22%3E%3CmxGeometry%20x%3D%22280%22%20y%3D%22370%22%20width%3D%22120%22%20height%3D%2260%22%20as%3D%22geometry%22%2F%3E%3C%2FmxCell%3E%3C%2Froot%3E%3C%2FmxGraphModel%3E&lt;/span&gt;" style="rounded=0;whiteSpace=wrap;html=1;" vertex="1" parent="1">
          <mxGeometry x="120" y="500" width="120" height="60" as="geometry" />
        </mxCell>
        <mxCell id="k_D7o5TNv6KQE1bCxvpx-9" value="Divisi Acara&lt;span style=&quot;color: rgba(0, 0, 0, 0); font-family: monospace; font-size: 0px; text-align: start; text-wrap-mode: nowrap;&quot;&gt;%3CmxGraphModel%3E%3Croot%3E%3CmxCell%20id%3D%220%22%2F%3E%3CmxCell%20id%3D%221%22%20parent%3D%220%22%2F%3E%3CmxCell%20id%3D%222%22%20value%3D%22Koordinator%20Lapangan%22%20style%3D%22rounded%3D0%3BwhiteSpace%3Dwrap%3Bhtml%3D1%3B%22%20vertex%3D%221%22%20parent%3D%221%22%3E%3CmxGeometry%20x%3D%22280%22%20y%3D%22370%22%20width%3D%22120%22%20height%3D%2260%22%20as%3D%22geometry%22%2F%3E%3C%2FmxCell%3E%3C%2Froot%3E%3C%2FmxGraphModel%3E&lt;/span&gt;" style="rounded=0;whiteSpace=wrap;html=1;" vertex="1" parent="1">
          <mxGeometry x="280" y="500" width="120" height="60" as="geometry" />
        </mxCell>
        <mxCell id="k_D7o5TNv6KQE1bCxvpx-10" value="Divisi Perlengkapan" style="rounded=0;whiteSpace=wrap;html=1;" vertex="1" parent="1">
          <mxGeometry x="440" y="500" width="120" height="60" as="geometry" />
        </mxCell>
        <mxCell id="k_D7o5TNv6KQE1bCxvpx-11" value="Divisi Konsumsi" style="rounded=0;whiteSpace=wrap;html=1;" vertex="1" parent="1">
          <mxGeometry x="-39" y="500" width="120" height="60" as="geometry" />
        </mxCell>
        <mxCell id="k_D7o5TNv6KQE1bCxvpx-12" value="Divisi Pemateri" style="rounded=0;whiteSpace=wrap;html=1;" vertex="1" parent="1">
          <mxGeometry x="600" y="500" width="120" height="60" as="geometry" />
        </mxCell>
        <mxCell id="k_D7o5TNv6KQE1bCxvpx-13" value="Divisi Humas" style="rounded=0;whiteSpace=wrap;html=1;" vertex="1" parent="1">
          <mxGeometry x="-200" y="500" width="120" height="60" as="geometry" />
        </mxCell>
        <mxCell id="k_D7o5TNv6KQE1bCxvpx-14" value="Divisi Kreatif" style="rounded=0;whiteSpace=wrap;html=1;" vertex="1" parent="1">
          <mxGeometry x="760" y="500" width="120" height="60" as="geometry" />
        </mxCell>
        <mxCell id="k_D7o5TNv6KQE1bCxvpx-15" value="" style="endArrow=none;html=1;rounded=0;exitX=0.5;exitY=0;exitDx=0;exitDy=0;entryX=0.5;entryY=1;entryDx=0;entryDy=0;" edge="1" parent="1" source="k_D7o5TNv6KQE1bCxvpx-2" target="k_D7o5TNv6KQE1bCxvpx-1">
          <mxGeometry width="50" height="50" relative="1" as="geometry">
            <mxPoint x="290" y="150" as="sourcePoint" />
            <mxPoint x="340" y="100" as="targetPoint" />
          </mxGeometry>
        </mxCell>
        <mxCell id="k_D7o5TNv6KQE1bCxvpx-16" value="" style="endArrow=none;html=1;rounded=0;" edge="1" parent="1">
          <mxGeometry width="50" height="50" relative="1" as="geometry">
            <mxPoint x="540" y="140" as="sourcePoint" />
            <mxPoint x="140" y="140" as="targetPoint" />
            <Array as="points">
              <mxPoint x="540" y="120" />
              <mxPoint x="140" y="120" />
            </Array>
          </mxGeometry>
        </mxCell>
        <mxCell id="k_D7o5TNv6KQE1bCxvpx-17" value="" style="endArrow=none;html=1;rounded=0;exitX=0.5;exitY=0;exitDx=0;exitDy=0;entryX=0.5;entryY=0;entryDx=0;entryDy=0;entryPerimeter=0;" edge="1" parent="1">
          <mxGeometry width="50" height="50" relative="1" as="geometry">
            <mxPoint x="540" y="240" as="sourcePoint" />
            <mxPoint x="140" y="240" as="targetPoint" />
            <Array as="points">
              <mxPoint x="540" y="220" />
              <mxPoint x="140" y="220" />
            </Array>
          </mxGeometry>
        </mxCell>
        <mxCell id="k_D7o5TNv6KQE1bCxvpx-18" value="" style="endArrow=none;html=1;rounded=0;exitX=0.5;exitY=1;exitDx=0;exitDy=0;entryX=0.5;entryY=1;entryDx=0;entryDy=0;" edge="1" parent="1" source="k_D7o5TNv6KQE1bCxvpx-6" target="k_D7o5TNv6KQE1bCxvpx-5">
          <mxGeometry width="50" height="50" relative="1" as="geometry">
            <mxPoint x="540" y="340" as="sourcePoint" />
            <mxPoint x="140" y="340" as="targetPoint" />
            <Array as="points">
              <mxPoint x="540" y="320" />
              <mxPoint x="140" y="320" />
            </Array>
          </mxGeometry>
        </mxCell>
        <mxCell id="k_D7o5TNv6KQE1bCxvpx-19" value="" style="endArrow=none;html=1;rounded=0;entryX=0.5;entryY=1;entryDx=0;entryDy=0;" edge="1" parent="1">
          <mxGeometry width="50" height="50" relative="1" as="geometry">
            <mxPoint x="340" y="370" as="sourcePoint" />
            <mxPoint x="339.7" y="320" as="targetPoint" />
          </mxGeometry>
        </mxCell>
        <mxCell id="k_D7o5TNv6KQE1bCxvpx-20" value="" style="endArrow=none;html=1;rounded=0;" edge="1" parent="1">
          <mxGeometry width="50" height="50" relative="1" as="geometry">
            <mxPoint x="820" y="480" as="sourcePoint" />
            <mxPoint x="-140" y="480" as="targetPoint" />
            <Array as="points">
              <mxPoint x="540" y="480" />
              <mxPoint x="140" y="480" />
            </Array>
          </mxGeometry>
        </mxCell>
        <mxCell id="k_D7o5TNv6KQE1bCxvpx-21" value="" style="endArrow=none;html=1;rounded=0;entryX=0.5;entryY=1;entryDx=0;entryDy=0;exitX=0.5;exitY=0;exitDx=0;exitDy=0;" edge="1" parent="1" source="k_D7o5TNv6KQE1bCxvpx-9">
          <mxGeometry width="50" height="50" relative="1" as="geometry">
            <mxPoint x="339.97" y="480" as="sourcePoint" />
            <mxPoint x="339.67" y="430" as="targetPoint" />
          </mxGeometry>
        </mxCell>
        <mxCell id="k_D7o5TNv6KQE1bCxvpx-22" value="" style="endArrow=none;html=1;rounded=0;exitX=0.5;exitY=0;exitDx=0;exitDy=0;" edge="1" parent="1">
          <mxGeometry width="50" height="50" relative="1" as="geometry">
            <mxPoint x="180.14" y="500" as="sourcePoint" />
            <mxPoint x="180" y="480" as="targetPoint" />
          </mxGeometry>
        </mxCell>
        <mxCell id="k_D7o5TNv6KQE1bCxvpx-23" value="" style="endArrow=none;html=1;rounded=0;exitX=0.5;exitY=0;exitDx=0;exitDy=0;" edge="1" parent="1">
          <mxGeometry width="50" height="50" relative="1" as="geometry">
            <mxPoint x="20.939999999999998" y="500" as="sourcePoint" />
            <mxPoint x="20.80000000000001" y="480" as="targetPoint" />
          </mxGeometry>
        </mxCell>
        <mxCell id="k_D7o5TNv6KQE1bCxvpx-24" value="" style="endArrow=none;html=1;rounded=0;exitX=0.5;exitY=0;exitDx=0;exitDy=0;" edge="1" parent="1">
          <mxGeometry width="50" height="50" relative="1" as="geometry">
            <mxPoint x="-140.06" y="500" as="sourcePoint" />
            <mxPoint x="-140.2" y="480" as="targetPoint" />
          </mxGeometry>
        </mxCell>
        <mxCell id="k_D7o5TNv6KQE1bCxvpx-28" value="" style="endArrow=none;html=1;rounded=0;exitX=0.5;exitY=0;exitDx=0;exitDy=0;" edge="1" parent="1">
          <mxGeometry width="50" height="50" relative="1" as="geometry">
            <mxPoint x="500.07" y="500" as="sourcePoint" />
            <mxPoint x="500" y="480" as="targetPoint" />
          </mxGeometry>
        </mxCell>
        <mxCell id="k_D7o5TNv6KQE1bCxvpx-29" value="" style="endArrow=none;html=1;rounded=0;exitX=0.5;exitY=0;exitDx=0;exitDy=0;" edge="1" parent="1">
          <mxGeometry width="50" height="50" relative="1" as="geometry">
            <mxPoint x="659.92" y="500" as="sourcePoint" />
            <mxPoint x="659.85" y="480" as="targetPoint" />
          </mxGeometry>
        </mxCell>
        <mxCell id="k_D7o5TNv6KQE1bCxvpx-30" value="" style="endArrow=none;html=1;rounded=0;exitX=0.5;exitY=0;exitDx=0;exitDy=0;" edge="1" parent="1">
          <mxGeometry width="50" height="50" relative="1" as="geometry">
            <mxPoint x="819.92" y="500" as="sourcePoint" />
            <mxPoint x="819.85" y="480" as="targetPoint" />
          </mxGeometry>
        </mxCell>
        <mxCell id="k_D7o5TNv6KQE1bCxvpx-32" value="" style="endArrow=none;html=1;rounded=0;entryX=0.5;entryY=1;entryDx=0;entryDy=0;exitX=0.5;exitY=0;exitDx=0;exitDy=0;" edge="1" parent="1">
          <mxGeometry width="50" height="50" relative="1" as="geometry">
            <mxPoint x="340.13" y="370" as="sourcePoint" />
            <mxPoint x="339.8" y="300" as="targetPoint" />
          </mxGeometry>
        </mxCell>
      </root>
    </mxGraphModel>
  </diagram>
</mxfile>
